<?xml version="1.0" encoding="UTF-8"?>
<svg id="Layer_2" xmlns="http://www.w3.org/2000/svg" viewBox="0 0 510.24 239.06">
  <defs>
    <style>
      .cls-1 {
        fill-rule: evenodd;
      }

      .cls-1, .cls-2 {
        fill: #ff0009;
      }
    </style>
  </defs>
  <g id="Layer_1-2" data-name="Layer_1">
    <g>
      <path class="cls-2" d="M499.75,213.32l-7.55,21.07c-.59,1.64-1.29,2.83-2.1,3.56-.8.73-2.15,1.1-4.04,1.1s-3.29-.37-4.09-1.1c-.8-.73-1.5-1.92-2.1-3.56l-7.5-21.07c-.31-.84-.58-1.26-.79-1.26-.35,0-.52.38-.52,1.15l.26,25.42h-9.44v-31.45c0-1.15.24-2.13.73-2.94.49-.8,1.14-1.39,1.97-1.76.82-.37,1.61-.62,2.36-.76.75-.14,1.55-.21,2.39-.21,4.02,0,6.67,1.8,7.97,5.4l7.71,21.18c.35,1.01.7,1.52,1.05,1.52s.7-.51,1.05-1.52l7.71-21.18c1.29-3.6,3.93-5.4,7.92-5.4,5,0,7.5,1.89,7.5,5.66v31.45h-9.44l.31-25.42c0-.77-.19-1.15-.58-1.15-.21,0-.47.42-.79,1.26M429.88,211.33c-1.36,1.61-2.04,4.6-2.04,8.96s.69,7.36,2.07,8.99c1.38,1.62,3.98,2.44,7.78,2.44s6.4-.81,7.78-2.44c1.38-1.63,2.07-4.62,2.07-8.99s-.69-7.36-2.07-8.99c-1.38-1.62-3.97-2.44-7.78-2.44s-6.41.82-7.81,2.46ZM428.52,202.31c2.34-.52,5.4-.79,9.17-.79s6.83.26,9.17.79c2.34.52,4.32,1.48,5.95,2.88,1.62,1.4,2.76,3.3,3.41,5.71.65,2.41.97,5.54.97,9.38s-.32,6.97-.97,9.38c-.65,2.41-1.78,4.32-3.41,5.74-1.62,1.42-3.61,2.38-5.95,2.88-2.34.51-5.4.76-9.17.76s-6.83-.25-9.17-.76c-2.34-.51-4.32-1.47-5.95-2.88-1.63-1.42-2.76-3.33-3.41-5.74-.65-2.41-.97-5.54-.97-9.38s.32-6.97.97-9.38c.65-2.41,1.78-4.32,3.41-5.71,1.63-1.4,3.61-2.36,5.95-2.88ZM416.72,238.64h-15.67c-5.87,0-9.97-1.52-12.29-4.56-2.32-3.04-3.49-7.64-3.49-13.79s1.16-10.75,3.49-13.79c2.32-3.04,6.42-4.56,12.29-4.56h15.15v7.34h-10.48c-4.23,0-7.09.73-8.57,2.2-1.49,1.47-2.23,4.4-2.23,8.81s.74,7.34,2.23,8.81c1.49,1.47,4.34,2.2,8.57,2.2h11.01v7.34ZM381.39,201.95v7.13h-18.87c-.91,0-1.55.18-1.91.55-.37.37-.55,1-.55,1.91v5.08h20.86v6.81h-20.86v5.61c0,.91.18,1.55.55,1.91.37.37,1,.55,1.91.55h19.08v7.13h-25.42c-3.7,0-5.56-1.87-5.56-5.61v-25.42c0-3.77,1.85-5.66,5.56-5.66h25.21ZM347.74,238.64h-25.21c-3.7,0-5.56-1.87-5.56-5.61v-31.08h9.44v26.89c0,.91.18,1.55.55,1.91.37.37,1,.55,1.91.55h18.87v7.34ZM312.04,201.95v7.13h-18.87c-.91,0-1.55.18-1.91.55-.37.37-.55,1-.55,1.91v5.08h20.86v6.81h-20.86v5.61c0,.91.18,1.55.55,1.91.37.37,1,.55,1.91.55h19.08v7.13h-25.42c-3.7,0-5.56-1.87-5.56-5.61v-25.42c0-3.77,1.85-5.66,5.56-5.66h25.21ZM264.76,238.64h-9.44v-29.35h-13.63v-7.34h36.69v7.34h-13.63v29.35ZM226.81,209.28h-15.04c-3.7,0-6.26.77-7.65,2.31-1.4,1.54-2.1,4.44-2.1,8.7s.7,7.16,2.1,8.7c1.4,1.54,3.95,2.31,7.65,2.31h3.98c.91,0,1.55-.18,1.91-.55.37-.37.55-1,.55-1.91v-8.86h9.44v13.05c0,3.74-1.85,5.61-5.56,5.61h-13.94c-5.87,0-9.97-1.52-12.29-4.56-2.32-3.04-3.49-7.64-3.49-13.79s1.16-10.75,3.49-13.79c2.32-3.04,6.42-4.56,12.29-4.56h18.66v7.34ZM187.66,201.95v31.24c0,1.57-.52,2.94-1.55,4.11-1.03,1.17-2.75,1.76-5.16,1.76-3.18,0-5.5-1.12-6.97-3.35l-14.31-21.54c-.38-.59-.72-.89-1-.89-.42,0-.63.35-.63,1.05v24.32h-7.97v-31.35c0-1.92.64-3.36,1.91-4.32,1.28-.96,2.94-1.44,5.01-1.44,3.11,0,5.36,1.05,6.76,3.15l14.42,21.75s.1.13.18.29c.09.16.16.26.21.31.05.05.13.11.24.18.1.07.21.1.31.1.38,0,.58-.3.58-.89v-24.48h7.97ZM118.05,211.33c-1.36,1.61-2.04,4.6-2.04,8.96s.69,7.36,2.07,8.99c1.38,1.62,3.98,2.44,7.78,2.44s6.4-.81,7.78-2.44c1.38-1.63,2.07-4.62,2.07-8.99s-.69-7.36-2.07-8.99c-1.38-1.62-3.98-2.44-7.78-2.44s-6.41.82-7.81,2.46ZM116.68,202.31c2.34-.52,5.4-.79,9.17-.79s6.83.26,9.17.79c2.34.52,4.32,1.48,5.95,2.88,1.62,1.4,2.76,3.3,3.41,5.71.65,2.41.97,5.54.97,9.38s-.32,6.97-.97,9.38c-.65,2.41-1.78,4.32-3.41,5.74-1.63,1.42-3.61,2.38-5.95,2.88-2.34.51-5.4.76-9.17.76s-6.83-.25-9.17-.76c-2.34-.51-4.32-1.47-5.95-2.88-1.62-1.42-2.76-3.33-3.41-5.74-.65-2.41-.97-5.54-.97-9.38s.32-6.97.97-9.38c.65-2.41,1.78-4.32,3.41-5.71,1.63-1.4,3.61-2.36,5.95-2.88ZM76.84,211.9v16.77c0,.98.18,1.66.55,2.04.37.38,1.06.58,2.07.58h2.15c4.3,0,7.28-.75,8.94-2.25,1.66-1.5,2.49-4.42,2.49-8.75s-.83-7.25-2.49-8.75c-1.66-1.5-4.64-2.25-8.94-2.25h-2.15c-1.01,0-1.7.19-2.07.58-.37.38-.55,1.07-.55,2.04ZM88.17,238.64h-15.2c-3.7,0-5.56-1.87-5.56-5.61v-25.42c0-3.77,1.85-5.66,5.56-5.66h14.73c2.97,0,5.47.44,7.5,1.31,2.03.87,3.57,2.17,4.64,3.88,1.07,1.71,1.81,3.61,2.23,5.69.42,2.08.63,4.57.63,7.47s-.21,5.35-.63,7.44c-.42,2.1-1.14,4-2.18,5.71-1.03,1.71-2.52,3.01-4.48,3.88-1.96.87-4.37,1.31-7.23,1.31ZM49.43,238.64h-9.44v-36.69h9.44v36.69ZM9.44,211.9v16.77c0,.98.18,1.66.55,2.04.37.38,1.06.58,2.07.58h2.15c4.3,0,7.28-.75,8.94-2.25,1.66-1.5,2.49-4.42,2.49-8.75s-.83-7.25-2.49-8.75c-1.66-1.5-4.64-2.25-8.94-2.25h-2.15c-1.01,0-1.7.19-2.07.58-.37.38-.55,1.07-.55,2.04ZM20.76,238.64H5.56c-3.7,0-5.56-1.87-5.56-5.61v-25.42c0-3.77,1.85-5.66,5.56-5.66h14.73c2.97,0,5.47.44,7.5,1.31,2.03.87,3.57,2.17,4.64,3.88,1.07,1.71,1.81,3.61,2.23,5.69.42,2.08.63,4.57.63,7.47s-.21,5.35-.63,7.44c-.42,2.1-1.14,4-2.18,5.71-1.03,1.71-2.52,3.01-4.48,3.88-1.96.87-4.37,1.31-7.23,1.31Z"/>
      <path class="cls-1" d="M214.42,51.26c-8.16,4.74-6.53,16.09,1.04,19.42,8,3.52,17.75-3.17,34.58,9.21,4.79,3.52,8.35,8.91,10.47,13.84,2.22,5.17,2.52,9.48,2.69,13.85.15,3.87-1.18,9.59,2.79,13.95,3.88,4.27,9.96,4.44,13.99,1.98,5.97-3.65,5.32-9.85,5.51-13.71.22-4.48-.45-8.89-1.17-13.79-1.28-8.68-6.79-19.68-14.38-27.86-8.4-9.05-16.57-13.05-27.65-16.33-4.71-1.4-9.53-1.77-13.89-1.96-4.6-.2-10.12-.81-13.97,1.42M215.53,121.12c7.05,5.86,18.07,5.44,24.88-2.55,5.87-6.89,5.45-17.89-2.59-24.5-6.94-5.71-18-5.51-24.82,2.52-5.85,6.89-5.55,17.83,2.52,24.54ZM268.65,159.21h-65.96c-16.07,0-24.11-8.11-24.11-24.34V24.56c0-16.38,8.04-24.56,24.11-24.56h63.91c12.89,0,23.73,1.9,32.52,5.69,8.79,3.79,15.5,9.4,20.13,16.83,4.62,7.43,7.85,15.66,9.67,24.68,1.82,9.02,2.73,19.83,2.73,32.41s-.91,23.2-2.73,32.3c-1.82,9.1-4.97,17.36-9.44,24.79-4.47,7.43-10.96,13.04-19.45,16.83-8.49,3.79-18.95,5.69-31.39,5.69Z"/>
    </g>
  </g>
</svg>