<?xml version="1.0" encoding="UTF-8"?>
<svg id="Layer_2" xmlns="http://www.w3.org/2000/svg" viewBox="0 0 170.08 176.91">
  <defs>
    <style>
      .cls-1 {
        fill: #ff0009;
        fill-rule: evenodd;
      }
    </style>
  </defs>
  <g id="Layer_1-2" data-name="Layer_1">
    <path class="cls-1" d="M39.82,56.96c-9.07,5.27-7.25,17.88,1.16,21.58,8.89,3.91,19.72-3.53,38.42,10.23,5.33,3.92,9.28,9.9,11.63,15.37,2.47,5.74,2.8,10.54,2.99,15.39.17,4.3-1.31,10.65,3.1,15.5,4.31,4.74,11.07,4.94,15.54,2.2,6.63-4.06,5.92-10.95,6.12-15.24.24-4.98-.5-9.88-1.3-15.32-1.42-9.65-7.54-21.86-15.98-30.95-9.33-10.06-18.41-14.5-30.72-18.15-5.23-1.55-10.59-1.96-15.43-2.18-5.12-.23-11.25-.9-15.53,1.58M41.06,134.58c7.83,6.51,20.08,6.04,27.65-2.84,6.53-7.65,6.05-19.87-2.88-27.22-7.71-6.34-20-6.12-27.58,2.8-6.5,7.66-6.16,19.81,2.8,27.26ZM100.08,176.91H26.79c-17.86,0-26.79-9.01-26.79-27.04V27.29C0,9.1,8.93,0,26.79,0h71.01c14.32,0,26.37,2.11,36.14,6.32,9.77,4.21,17.23,10.45,22.37,18.7,5.14,8.26,8.72,17.4,10.74,27.42,2.02,10.03,3.03,22.03,3.03,36.01s-1.01,25.78-3.03,35.89c-2.02,10.11-5.52,19.29-10.49,27.55-4.97,8.26-12.17,14.49-21.61,18.7-9.43,4.21-21.06,6.32-34.87,6.32Z"/>
  </g>
</svg>