<?xml version="1.0" encoding="UTF-8"?>
<svg id="Layer_2" xmlns="http://www.w3.org/2000/svg" viewBox="0 0 510.24 76.11">
  <defs>
    <style>
      .cls-1 {
        fill-rule: evenodd;
      }

      .cls-1, .cls-2 {
        fill: #ff0009;
      }
    </style>
  </defs>
  <g id="Layer_1-2" data-name="Layer_1">
    <g>
      <path class="cls-1" d="M17.13,24.51c-3.9,2.27-3.12,7.69.5,9.28,3.82,1.68,8.48-1.52,16.53,4.4,2.29,1.68,3.99,4.26,5.01,6.61,1.06,2.47,1.21,4.53,1.29,6.62.07,1.85-.56,4.58,1.33,6.67,1.85,2.04,4.76,2.12,6.69.95,2.85-1.75,2.55-4.71,2.63-6.55.1-2.14-.22-4.25-.56-6.59-.61-4.15-3.25-9.41-6.88-13.32-4.02-4.33-7.92-6.24-13.22-7.81-2.25-.67-4.56-.84-6.64-.94-2.2-.1-4.84-.39-6.68.68M17.66,57.9c3.37,2.8,8.64,2.6,11.89-1.22,2.81-3.29,2.6-8.55-1.24-11.71-3.32-2.73-8.61-2.63-11.86,1.2-2.8,3.3-2.65,8.52,1.21,11.73ZM43.06,76.11H11.53c-7.68,0-11.53-3.88-11.53-11.63V11.74C0,3.91,3.84,0,11.53,0h30.55c6.16,0,11.34.91,15.55,2.72,4.2,1.81,7.41,4.49,9.62,8.05,2.21,3.55,3.75,7.48,4.62,11.8.87,4.31,1.3,9.48,1.3,15.49s-.43,11.09-1.3,15.44c-.87,4.35-2.37,8.3-4.51,11.85-2.14,3.55-5.24,6.23-9.3,8.05-4.06,1.81-9.06,2.72-15,2.72Z"/>
      <path class="cls-2" d="M501.67,32.36l-6.17,17.22c-.49,1.34-1.06,2.31-1.71,2.91-.66.6-1.76.9-3.3.9s-2.69-.3-3.34-.9c-.66-.6-1.23-1.57-1.71-2.91l-6.13-17.22c-.26-.69-.47-1.03-.64-1.03-.29,0-.43.31-.43.94l.21,20.78h-7.71v-25.71c0-.94.2-1.74.6-2.4.4-.66.94-1.14,1.61-1.44.67-.3,1.31-.51,1.93-.62.61-.11,1.26-.17,1.95-.17,3.28,0,5.46,1.47,6.51,4.41l6.3,17.31c.29.83.57,1.24.86,1.24s.57-.41.86-1.24l6.3-17.31c1.06-2.94,3.21-4.41,6.47-4.41,4.09,0,6.13,1.54,6.13,4.63v25.71h-7.71l.26-20.78c0-.63-.16-.94-.47-.94-.17,0-.39.34-.64,1.03M444.55,30.73c-1.11,1.31-1.67,3.76-1.67,7.33s.56,6.02,1.69,7.35c1.13,1.33,3.25,1.99,6.36,1.99s5.23-.66,6.36-1.99c1.13-1.33,1.69-3.78,1.69-7.35s-.56-6.02-1.69-7.35c-1.13-1.33-3.25-1.99-6.36-1.99s-5.24.67-6.38,2.01ZM443.44,23.36c1.91-.43,4.41-.64,7.5-.64s5.58.21,7.5.64c1.91.43,3.54,1.21,4.86,2.36,1.33,1.14,2.26,2.7,2.79,4.67.53,1.97.79,4.53.79,7.67s-.26,5.7-.79,7.67c-.53,1.97-1.46,3.53-2.79,4.69-1.33,1.16-2.95,1.94-4.86,2.36-1.91.41-4.41.62-7.5.62s-5.58-.21-7.5-.62c-1.91-.41-3.54-1.2-4.86-2.36-1.33-1.16-2.26-2.72-2.79-4.69-.53-1.97-.79-4.53-.79-7.67s.26-5.7.79-7.67c.53-1.97,1.46-3.53,2.79-4.67,1.33-1.14,2.95-1.93,4.86-2.36ZM433.8,53.05h-12.81c-4.8,0-8.15-1.24-10.05-3.73-1.9-2.49-2.85-6.24-2.85-11.27s.95-8.78,2.85-11.27c1.9-2.49,5.25-3.73,10.05-3.73h12.38v6h-8.57c-3.46,0-5.79.6-7.01,1.8-1.21,1.2-1.82,3.6-1.82,7.2s.61,6,1.82,7.2c1.21,1.2,3.55,1.8,7.01,1.8h9v6ZM404.92,23.06v5.83h-15.43c-.74,0-1.26.15-1.56.45-.3.3-.45.82-.45,1.56v4.16h17.05v5.57h-17.05v4.58c0,.74.15,1.26.45,1.56s.82.45,1.56.45h15.6v5.83h-20.78c-3.03,0-4.54-1.53-4.54-4.58v-20.78c0-3.08,1.51-4.63,4.54-4.63h20.61ZM377.41,53.05h-20.61c-3.03,0-4.54-1.53-4.54-4.58v-25.41h7.71v21.98c0,.74.15,1.26.45,1.56s.82.45,1.56.45h15.43v6ZM348.23,23.06v5.83h-15.43c-.74,0-1.26.15-1.56.45-.3.3-.45.82-.45,1.56v4.16h17.05v5.57h-17.05v4.58c0,.74.15,1.26.45,1.56.3.3.82.45,1.56.45h15.6v5.83h-20.78c-3.03,0-4.54-1.53-4.54-4.58v-20.78c0-3.08,1.51-4.63,4.54-4.63h20.61ZM309.58,53.05h-7.71v-23.99h-11.14v-6h29.99v6h-11.14v23.99ZM278.56,29.06h-12.3c-3.03,0-5.11.63-6.26,1.89-1.14,1.26-1.71,3.63-1.71,7.11s.57,5.86,1.71,7.11c1.14,1.26,3.23,1.89,6.26,1.89h3.26c.74,0,1.26-.15,1.56-.45.3-.3.45-.82.45-1.56v-7.24h7.71v10.67c0,3.06-1.51,4.58-4.54,4.58h-11.4c-4.8,0-8.15-1.24-10.05-3.73-1.9-2.49-2.85-6.24-2.85-11.27s.95-8.78,2.85-11.27c1.9-2.49,5.25-3.73,10.05-3.73h15.25v6ZM246.55,23.06v25.54c0,1.29-.42,2.41-1.26,3.36-.84.96-2.25,1.44-4.22,1.44-2.6,0-4.5-.91-5.7-2.74l-11.7-17.61c-.31-.49-.59-.73-.81-.73-.34,0-.51.29-.51.86v19.88h-6.51v-25.62c0-1.57.52-2.75,1.56-3.53,1.04-.79,2.41-1.18,4.09-1.18,2.54,0,4.38.86,5.53,2.57l11.78,17.78s.08.11.15.24c.07.13.13.21.17.26.04.04.11.09.19.15.09.06.17.09.26.09.31,0,.47-.24.47-.73v-20.01h6.51ZM189.65,30.73c-1.11,1.31-1.67,3.76-1.67,7.33s.56,6.02,1.69,7.35c1.13,1.33,3.25,1.99,6.36,1.99s5.23-.66,6.36-1.99c1.13-1.33,1.69-3.78,1.69-7.35s-.56-6.02-1.69-7.35c-1.13-1.33-3.25-1.99-6.36-1.99s-5.24.67-6.38,2.01ZM188.54,23.36c1.91-.43,4.41-.64,7.5-.64s5.58.21,7.5.64c1.91.43,3.53,1.21,4.86,2.36,1.33,1.14,2.26,2.7,2.79,4.67.53,1.97.79,4.53.79,7.67s-.26,5.7-.79,7.67c-.53,1.97-1.46,3.53-2.79,4.69-1.33,1.16-2.95,1.94-4.86,2.36-1.91.41-4.41.62-7.5.62s-5.58-.21-7.5-.62c-1.91-.41-3.53-1.2-4.86-2.36-1.33-1.16-2.26-2.72-2.79-4.69-.53-1.97-.79-4.53-.79-7.67s.26-5.7.79-7.67c.53-1.97,1.46-3.53,2.79-4.67,1.33-1.14,2.95-1.93,4.86-2.36ZM155.97,31.2v13.71c0,.8.15,1.36.45,1.67.3.31.86.47,1.69.47h1.76c3.51,0,5.95-.61,7.31-1.84,1.36-1.23,2.04-3.61,2.04-7.16s-.68-5.93-2.04-7.16c-1.36-1.23-3.79-1.84-7.31-1.84h-1.76c-.83,0-1.39.16-1.69.47-.3.31-.45.87-.45,1.67ZM165.23,53.05h-12.43c-3.03,0-4.54-1.53-4.54-4.58v-20.78c0-3.08,1.51-4.63,4.54-4.63h12.04c2.43,0,4.47.36,6.13,1.07,1.66.71,2.92,1.77,3.79,3.17.87,1.4,1.48,2.95,1.82,4.65.34,1.7.51,3.74.51,6.11s-.17,4.37-.51,6.08c-.34,1.71-.94,3.27-1.78,4.67-.84,1.4-2.06,2.46-3.66,3.17-1.6.71-3.57,1.07-5.91,1.07ZM133.56,53.05h-7.71v-29.99h7.71v29.99ZM100.87,31.2v13.71c0,.8.15,1.36.45,1.67.3.31.86.47,1.69.47h1.76c3.51,0,5.95-.61,7.31-1.84,1.36-1.23,2.04-3.61,2.04-7.16s-.68-5.93-2.04-7.16c-1.36-1.23-3.79-1.84-7.31-1.84h-1.76c-.83,0-1.39.16-1.69.47-.3.31-.45.87-.45,1.67ZM110.13,53.05h-12.43c-3.03,0-4.54-1.53-4.54-4.58v-20.78c0-3.08,1.51-4.63,4.54-4.63h12.04c2.43,0,4.47.36,6.13,1.07,1.66.71,2.92,1.77,3.79,3.17.87,1.4,1.48,2.95,1.82,4.65.34,1.7.51,3.74.51,6.11s-.17,4.37-.51,6.08c-.34,1.71-.94,3.27-1.78,4.67-.84,1.4-2.06,2.46-3.66,3.17-1.6.71-3.57,1.07-5.91,1.07Z"/>
    </g>
  </g>
</svg>